<?xml version="1.0" standalone="no"?>
<!DOCTYPE svg PUBLIC "-//W3C//DTD SVG 20010904//EN"
 "http://www.w3.org/TR/2001/REC-SVG-20010904/DTD/svg10.dtd">
<svg version="1.0" xmlns="http://www.w3.org/2000/svg"
 width="300.000000pt" height="100.000000pt" viewBox="0 0 300.000000 100.000000"
 preserveAspectRatio="xMidYMid meet">
<metadata>
Created by potrace 1.10, written by Peter Selinger 2001-2011
</metadata>
<g transform="translate(0.000000,100.000000) scale(0.100000,-0.100000)"
fill="#000000" stroke="none">
<path d="M42 893 c2 -5 47 -98 102 -208 54 -110 125 -256 158 -324 l60 -123
47 78 47 79 85 6 c107 7 180 40 243 110 41 45 47 49 91 49 42 0 45 1 31 16
-23 22 -23 222 -1 230 29 11 15 21 -30 21 -25 0 -45 -4 -45 -9 0 -4 4 -8 9 -8
10 0 21 -162 14 -207 -3 -18 -9 -33 -15 -33 -5 0 -6 15 -2 35 3 19 3 50 0 69
-7 37 -67 103 -103 112 -29 8 -29 11 7 67 l30 47 -198 -1 -197 0 140 -39 c77
-22 143 -40 148 -40 16 0 147 -138 148 -156 5 -59 -18 -106 -76 -157 -38 -34
-110 -66 -126 -56 -10 6 -10 9 -2 9 20 0 79 61 102 105 31 59 28 110 -9 146
-16 17 -34 27 -40 24 -6 -4 -89 17 -186 47 l-175 53 35 33 36 32 -166 0 c-91
0 -164 -3 -162 -7z m248 -43 c0 -25 30 -44 103 -64 32 -10 57 -20 55 -24 -16
-37 -166 -251 -175 -252 -12 0 -173 321 -173 346 0 11 21 14 95 14 88 0 95 -1
95 -20z m408 3 c-4 -23 -31 -28 -68 -11 -44 19 -37 28 21 28 43 0 50 -3 47
-17z m-198 -118 c51 -18 64 -19 54 -3 -5 8 2 9 26 4 19 -3 35 -8 38 -10 2 -3
-25 -53 -61 -113 -67 -112 -85 -153 -69 -153 6 0 45 57 88 128 42 70 79 129
81 131 2 3 13 -5 25 -17 56 -55 3 -168 -104 -221 -33 -17 -67 -31 -75 -31 -7
0 -13 -4 -13 -9 0 -5 -11 -12 -24 -15 -15 -4 -38 -26 -57 -56 -18 -28 -38 -50
-44 -50 -13 0 -45 63 -45 90 0 10 -9 21 -19 25 -42 13 -33 37 61 177 51 75 94
138 94 138 1 0 21 -7 44 -15z"/>
<path d="M935 793 c-8 -46 0 -52 20 -14 11 22 23 31 40 31 l25 0 0 -109 c0
-102 -2 -111 -22 -125 -21 -15 -19 -16 42 -15 54 0 61 2 43 11 -22 11 -23 17
-23 125 0 103 2 113 18 113 19 0 45 -24 55 -50 3 -8 6 4 6 27 l1 42 -99 0 -99
0 -7 -36z"/>
<path d="M1250 802 c-27 -34 -21 -79 15 -107 14 -11 37 -29 52 -41 20 -16 25
-26 20 -46 -13 -52 -66 -43 -87 14 -14 39 -25 22 -16 -25 6 -30 9 -32 55 -35
42 -2 50 0 65 22 18 29 21 78 6 107 -6 10 -28 28 -49 39 -46 23 -55 40 -35 69
18 26 46 15 68 -27 l15 -27 1 40 0 41 -44 2 c-38 1 -48 -3 -66 -26z"/>
<path d="M1440 803 c-81 -73 -46 -243 50 -243 58 0 100 56 100 134 0 116 -78
173 -150 109z m91 -20 c8 -15 14 -53 13 -93 0 -112 -48 -156 -86 -80 -36 71
-13 200 35 200 15 0 29 -9 38 -27z"/>
<path d="M1610 821 c0 -5 7 -11 15 -15 12 -4 15 -27 15 -115 0 -94 -3 -111
-17 -120 -13 -8 5 -10 70 -11 l87 0 0 29 c0 16 3 36 6 45 11 30 -11 16 -26
-16 -14 -30 -60 -55 -74 -40 -3 3 -6 54 -6 114 0 87 3 110 15 114 31 12 13 24
-35 24 -27 0 -50 -4 -50 -9z"/>
<path d="M1790 820 c0 -5 5 -10 10 -10 6 0 10 -36 10 -89 0 -90 11 -139 33
-153 7 -4 29 -8 49 -8 60 0 78 33 78 139 0 62 4 93 16 109 15 21 14 22 -20 22
-40 0 -43 -4 -20 -28 14 -13 16 -31 11 -96 -6 -94 -12 -113 -38 -121 -33 -11
-57 12 -65 60 -9 60 0 158 14 163 28 9 8 22 -33 22 -25 0 -45 -4 -45 -10z"/>
<path d="M2010 787 l0 -42 20 33 c12 19 28 32 40 32 19 0 20 -6 20 -111 0 -95
-3 -114 -17 -125 -16 -12 -10 -13 41 -14 l60 0 -22 20 c-20 19 -22 31 -22 125
l0 105 25 0 c17 0 29 -9 40 -31 20 -38 28 -32 20 14 l-7 35 -99 0 -99 0 0 -41z"/>
<path d="M2244 811 c23 -25 23 -213 0 -235 -14 -15 -11 -16 38 -16 41 1 49 3
36 11 -16 9 -18 26 -18 124 0 96 3 115 15 115 8 0 15 4 15 9 0 5 -23 9 -51 9
-47 0 -49 -1 -35 -17z"/>
<path d="M2402 814 c-68 -48 -70 -208 -3 -244 56 -29 121 7 141 79 14 50 12
70 -9 118 -29 62 -81 81 -129 47z m85 -41 c30 -74 3 -203 -43 -203 -41 0 -64
138 -35 208 20 47 57 44 78 -5z"/>
<path d="M2560 825 c0 -3 9 -14 20 -25 17 -17 20 -33 20 -120 0 -84 -3 -101
-17 -109 -14 -8 -9 -10 26 -11 38 0 42 2 29 13 -11 8 -17 36 -21 90 -5 72 3
99 17 60 10 -25 99 -163 105 -163 4 0 7 55 9 122 2 101 6 123 20 134 15 12 12
13 -25 14 -46 0 -52 -6 -27 -24 11 -9 14 -27 12 -81 l-3 -69 -54 87 c-47 76
-57 87 -82 87 -16 0 -29 -2 -29 -5z"/>
<path d="M2816 814 c-40 -39 -26 -113 24 -134 42 -18 63 -45 56 -73 -12 -50
-66 -41 -84 13 -15 42 -22 38 -22 -13 l0 -43 43 -2 c57 -2 72 4 85 34 28 61 8
107 -66 146 -35 19 -40 38 -16 62 20 20 51 6 65 -31 13 -35 23 -22 15 19 -5
30 -10 33 -45 36 -25 1 -45 -3 -55 -14z"/>
<path d="M1120 650 c0 -17 7 -20 50 -20 43 0 50 3 50 20 0 17 -7 20 -50 20
-43 0 -50 -3 -50 -20z"/>
<path d="M830 520 c0 -7 360 -10 1060 -10 700 0 1060 3 1060 10 0 7 -360 10
-1060 10 -700 0 -1060 -3 -1060 -10z"/>
<path d="M770 433 c-1 -10 -7 -35 -14 -55 l-14 -38 38 0 c24 0 40 5 44 15 7
18 2 19 -24 3 -29 -18 -34 -4 -17 46 14 40 14 46 1 46 -8 0 -14 -8 -14 -17z"/>
<path d="M1090 430 c0 -13 -5 -17 -14 -14 -19 7 -58 -32 -54 -54 5 -24 73 -28
74 -4 1 9 4 34 9 55 5 25 4 37 -4 37 -6 0 -11 -9 -11 -20z m-10 -38 c0 -19
-18 -42 -32 -42 -12 0 -9 35 4 48 17 17 28 15 28 -6z"/>
<path d="M1426 409 c-4 -24 -12 -49 -18 -56 -8 -10 -2 -13 30 -13 40 0 69 20
58 39 -4 6 -1 19 6 30 15 25 10 30 -34 38 -35 5 -35 5 -42 -38z m59 10 c0 -8
-10 -15 -23 -17 -21 -3 -22 -1 -12 18 12 23 35 22 35 -1z m-7 -46 c-2 -10 -13
-19 -26 -21 -24 -4 -25 -2 -16 22 9 23 46 21 42 -1z"/>
<path d="M2117 443 c-15 -14 -6 -23 13 -13 24 13 25 2 6 -52 -13 -36 -12 -38
6 -38 10 0 16 4 13 10 -8 13 13 90 25 90 6 0 10 -4 10 -10 0 -5 5 -10 10 -10
6 0 10 7 10 15 0 11 -11 15 -43 15 -24 0 -47 -3 -50 -7z"/>
<path d="M2374 441 c3 -5 -1 -30 -8 -55 -10 -34 -11 -46 -3 -43 7 2 13 14 15
26 3 21 27 39 38 29 2 -3 0 -17 -5 -32 -8 -20 -7 -26 3 -26 17 0 28 62 13 72
-6 3 -17 4 -25 1 -11 -5 -13 -1 -7 15 5 16 2 22 -10 22 -9 0 -14 -4 -11 -9z"/>
<path d="M2664 433 c-1 -10 -4 -35 -9 -55 -4 -24 -3 -38 3 -38 5 0 12 15 15
33 4 17 9 42 13 55 4 15 2 22 -8 22 -7 0 -14 -8 -14 -17z"/>
<path d="M863 405 c-45 -31 -18 -81 30 -57 20 11 20 11 -5 6 -38 -8 -35 9 3
23 18 7 29 17 27 25 -7 19 -30 20 -55 3z"/>
<path d="M948 408 c-16 -12 -22 -29 -19 -55 0 -6 16 -11 35 -10 19 0 33 4 30
8 -2 4 0 19 5 32 8 20 6 27 -5 31 -22 8 -28 8 -46 -6z m29 -31 c-7 -11 -19
-23 -25 -25 -17 -5 -15 24 4 42 22 23 39 9 21 -17z"/>
<path d="M1130 396 c0 -13 -3 -31 -6 -40 -4 -10 -1 -16 7 -16 9 0 15 14 17 40
1 22 -2 40 -8 40 -5 0 -10 -11 -10 -24z"/>
<path d="M1180 396 c0 -13 -3 -31 -6 -40 -3 -9 -2 -16 3 -16 11 0 31 52 25 68
-7 21 -22 13 -22 -12z"/>
<path d="M1215 411 c-3 -6 -1 -11 6 -11 7 0 9 -10 6 -30 -5 -20 -3 -30 6 -30
16 0 16 72 0 77 -6 2 -14 -1 -18 -6z"/>
<path d="M1285 401 c-22 -25 -16 -56 12 -55 13 0 19 -4 16 -13 -6 -15 -43 -18
-43 -2 0 5 -4 7 -10 4 -21 -13 -9 -25 25 -25 38 0 45 9 59 75 6 27 4 31 -17
33 -14 1 -32 -7 -42 -17z m45 -2 c0 -17 -20 -49 -30 -49 -14 0 -12 34 2 48 15
15 28 15 28 1z"/>
<path d="M1526 389 c-9 -47 -9 -48 28 -47 31 1 34 4 40 37 7 48 0 51 -18 7
-20 -47 -41 -48 -32 -1 4 19 3 35 -2 35 -5 0 -12 -14 -16 -31z"/>
<path d="M1633 413 c-18 -7 -16 -30 2 -37 23 -8 18 -29 -5 -23 -11 3 -20 1
-20 -4 0 -13 47 -11 55 2 4 5 0 18 -9 28 -22 24 -20 34 5 26 15 -5 19 -4 15 4
-7 11 -22 13 -43 4z"/>
<path d="M1695 384 c-6 -32 -1 -54 9 -43 9 11 16 79 8 79 -6 0 -13 -16 -17
-36z"/>
<path d="M1745 383 c-8 -46 2 -55 16 -15 6 18 17 32 25 32 17 0 17 -1 4 -34
-7 -21 -6 -26 5 -26 9 0 16 10 17 25 0 14 1 30 2 37 1 7 -13 13 -31 14 -28 1
-32 -2 -38 -33z"/>
<path d="M1858 408 c-16 -13 -22 -29 -19 -55 1 -16 47 -17 56 -3 4 7 -2 9 -19
4 -36 -9 -32 9 5 23 18 7 29 17 27 25 -6 18 -30 21 -50 6z"/>
<path d="M1931 406 c-9 -10 -8 -16 4 -26 21 -18 19 -32 -5 -25 -11 4 -20 2
-20 -4 0 -6 11 -11 25 -11 31 0 45 28 21 42 -9 5 -14 14 -10 19 4 6 11 6 20
-2 11 -9 14 -8 14 5 0 20 -33 21 -49 2z"/>
<path d="M2000 406 c-9 -12 -7 -17 9 -28 29 -18 26 -32 -4 -24 -14 4 -25 2
-25 -4 0 -5 11 -10 25 -10 31 0 45 28 22 42 -9 4 -14 15 -11 23 8 19 0 19 -16
1z"/>
<path d="M2210 400 c-12 -12 -20 -29 -18 -38 4 -20 46 -28 62 -12 8 9 4 10
-16 5 -38 -10 -35 8 3 22 18 7 29 17 27 25 -7 22 -35 21 -58 -2z"/>
<path d="M2296 401 c-10 -11 -16 -28 -14 -38 4 -22 36 -30 52 -13 8 9 6 11
-11 5 -18 -5 -23 -2 -23 13 0 27 23 45 38 30 9 -9 12 -8 12 5 0 23 -33 22 -54
-2z"/>
<path d="M2466 406 c3 -7 0 -25 -5 -39 -6 -15 -7 -27 -2 -27 5 0 14 14 20 30
5 17 17 30 25 30 19 0 19 -1 6 -34 -7 -20 -6 -26 4 -26 9 0 13 12 12 36 -1 34
-4 37 -33 39 -21 2 -30 -1 -27 -9z"/>
<path d="M2569 399 c-11 -11 -19 -28 -17 -37 4 -21 44 -28 64 -12 19 16 18 56
-2 64 -22 8 -22 8 -45 -15z m39 -16 c-4 -32 -38 -46 -38 -16 0 20 18 43 33 43
4 0 7 -12 5 -27z"/>
<path d="M2718 408 c-16 -13 -22 -29 -19 -55 2 -23 50 -14 67 12 13 20 14 28
4 40 -15 18 -31 19 -52 3z m36 -36 c-14 -22 -44 -28 -44 -8 0 23 31 49 44 36
7 -7 8 -15 0 -28z"/>
<path d="M2805 401 c-23 -26 -16 -56 13 -55 12 0 21 -4 19 -10 -5 -15 -47 -20
-47 -6 0 6 -4 8 -10 5 -25 -15 -5 -24 50 -24 58 1 62 3 95 42 35 40 45 67 25
67 -5 0 -10 -8 -10 -19 0 -10 -7 -24 -15 -31 -13 -11 -15 -8 -15 19 0 17 -5
31 -10 31 -6 0 -8 -16 -4 -41 5 -30 3 -43 -7 -50 -22 -14 -42 -11 -36 5 3 8 9
30 12 48 6 30 4 34 -18 36 -13 1 -32 -7 -42 -17z m45 -9 c0 -19 -18 -42 -32
-42 -12 0 -9 35 4 48 17 17 28 15 28 -6z"/>
</g>
</svg>
